<svg xmlns="http://www.w3.org/2000/svg" viewBox="0 0 32 32" fill="none">
  <rect width="32" height="32" rx="8" fill="#0d9488"/>
  <path d="M8 8h16v16H8z" fill="white"/>
  <path d="M16 10C12.686 10 10 12.686 10 16s2.686 6 6 6 6-2.686 6-6-2.686-6-6-6z" fill="#0d9488"/>
  <path d="M16 12C13.791 12 12 13.791 12 16s1.791 4 4 4 4-1.791 4-4-1.791-4-4-4z" fill="white"/>
  <path d="M16 14C14.895 14 14 14.895 14 16s0.895 2 2 2 2-0.895 2-2-0.895-2-2-2z" fill="#0d9488"/>
  <path d="M16 15C15.448 15 15 15.448 15 16s0.448 1 1 1 1-0.448 1-1-0.448-1-1-1z" fill="white"/>
</svg>
