<svg xmlns="http://www.w3.org/2000/svg" viewBox="0 0 32 32" fill="none">
  <path d="M16 2C8.268 2 2 8.268 2 16s6.268 14 14 14 14-6.268 14-14S23.732 2 16 2z" fill="#0d9488"/>
  <path d="M16 6C10.477 6 6 10.477 6 16s4.477 10 10 10 10-4.477 10-10S21.523 6 16 6z" fill="white"/>
  <path d="M16 8C11.582 8 8 11.582 8 16s3.582 8 8 8 8-3.582 8-8-3.582-8-8-8z" fill="#0d9488"/>
  <path d="M16 10C12.686 10 10 12.686 10 16s2.686 6 6 6 6-2.686 6-6-2.686-6-6-6z" fill="white"/>
  <path d="M16 12C13.791 12 12 13.791 12 16s1.791 4 4 4 4-1.791 4-4-1.791-4-4-4z" fill="#0d9488"/>
  <path d="M16 14C14.895 14 14 14.895 14 16s0.895 2 2 2 2-0.895 2-2-0.895-2-2-2z" fill="white"/>
  <path d="M16 15C15.448 15 15 15.448 15 16s0.448 1 1 1 1-0.448 1-1-0.448-1-1-1z" fill="#0d9488"/>
</svg>
